<svg width="119" height="108" viewBox="0 0 119 108" fill="none" xmlns="http://www.w3.org/2000/svg">
<path d="M0 10C0 4.47715 4.47715 0 10 0H82.1206C87.6434 0 92.1206 4.47715 92.1206 10V12.2284H0V10Z" fill="#FF7700"/>
<path d="M0 67.6638H92.1206V79.8922H10C4.47715 79.8922 0 75.415 0 69.8922V67.6638Z" fill="#FF7700"/>
<path d="M12.2284 0V75.8161H10C4.47715 75.8161 -2.86102e-06 71.3389 -2.86102e-06 65.8161V9.99999C-2.86102e-06 4.47714 4.47715 0 10 0H12.2284Z" fill="#FF7700"/>
<path d="M82.1206 0C87.6435 0 92.1206 4.47715 92.1206 10V75.8161H79.8922V0H82.1206Z" fill="#FF7700"/>
<path d="M65.7761 51.3252C65.5844 49.7807 67.1526 48.6188 68.5744 49.2518L104.93 65.4395C106.329 66.0623 106.538 67.9619 105.308 68.8735L73.8523 92.18C72.622 93.0916 70.8655 92.3389 70.6769 90.8193L65.7761 51.3252Z" fill="white"/>
<rect x="73.1323" y="72.6086" width="6.65861" height="31.9613" rx="3.32931" transform="rotate(-36.5362 73.1323 72.6086)" fill="white"/>
<rect x="80.6224" y="67.0589" width="6.65861" height="31.9613" rx="3.32931" transform="rotate(-36.5362 80.6224 67.0589)" fill="white"/>
</svg>
