<svg width="267" height="108" viewBox="0 0 267 108" fill="none" xmlns="http://www.w3.org/2000/svg">
<path d="M116.409 58H104.034V23.0909H116.511C120.023 23.0909 123.045 23.7898 125.58 25.1875C128.114 26.5739 130.063 28.5682 131.426 31.1705C132.801 33.7727 133.489 36.8864 133.489 40.5114C133.489 44.1477 132.801 47.2727 131.426 49.8864C130.063 52.5 128.102 54.5057 125.545 55.9034C123 57.3011 119.955 58 116.409 58ZM111.415 51.6761H116.102C118.284 51.6761 120.119 51.2898 121.608 50.517C123.108 49.733 124.233 48.5227 124.983 46.8864C125.744 45.2386 126.125 43.1136 126.125 40.5114C126.125 37.9318 125.744 35.8239 124.983 34.1875C124.233 32.5511 123.114 31.3466 121.625 30.5739C120.136 29.8011 118.301 29.4148 116.119 29.4148H111.415V51.6761ZM138.82 58V31.8182H145.859V36.3864H146.132C146.609 34.7614 147.411 33.5341 148.536 32.7045C149.661 31.8636 150.956 31.4432 152.422 31.4432C152.786 31.4432 153.178 31.4659 153.598 31.5114C154.018 31.5568 154.388 31.6193 154.706 31.6989V38.142C154.365 38.0398 153.893 37.9489 153.291 37.8693C152.689 37.7898 152.138 37.75 151.638 37.75C150.57 37.75 149.615 37.983 148.774 38.4489C147.945 38.9034 147.286 39.5398 146.797 40.358C146.32 41.1761 146.081 42.1193 146.081 43.1875V58H138.82ZM169.071 58.5114C166.423 58.5114 164.134 57.9489 162.202 56.8239C160.281 55.6875 158.798 54.108 157.753 52.0852C156.707 50.0511 156.185 47.6932 156.185 45.0114C156.185 42.3068 156.707 39.9432 157.753 37.9205C158.798 35.8864 160.281 34.3068 162.202 33.1818C164.134 32.0455 166.423 31.4773 169.071 31.4773C171.719 31.4773 174.003 32.0455 175.923 33.1818C177.855 34.3068 179.344 35.8864 180.389 37.9205C181.435 39.9432 181.957 42.3068 181.957 45.0114C181.957 47.6932 181.435 50.0511 180.389 52.0852C179.344 54.108 177.855 55.6875 175.923 56.8239C174.003 57.9489 171.719 58.5114 169.071 58.5114ZM169.105 52.8864C170.31 52.8864 171.315 52.5455 172.122 51.8636C172.929 51.1705 173.537 50.2273 173.946 49.0341C174.366 47.8409 174.577 46.483 174.577 44.9602C174.577 43.4375 174.366 42.0795 173.946 40.8864C173.537 39.6932 172.929 38.75 172.122 38.0568C171.315 37.3636 170.31 37.017 169.105 37.017C167.889 37.017 166.866 37.3636 166.037 38.0568C165.219 38.75 164.599 39.6932 164.179 40.8864C163.77 42.0795 163.565 43.4375 163.565 44.9602C163.565 46.483 163.77 47.8409 164.179 49.0341C164.599 50.2273 165.219 51.1705 166.037 51.8636C166.866 52.5455 167.889 52.8864 169.105 52.8864ZM186.679 67.8182V31.8182H193.838V36.2159H194.162C194.48 35.5114 194.94 34.7955 195.543 34.0682C196.156 33.3295 196.952 32.7159 197.929 32.2273C198.918 31.7273 200.145 31.4773 201.611 31.4773C203.52 31.4773 205.281 31.9773 206.895 32.9773C208.509 33.9659 209.798 35.4602 210.764 37.4602C211.73 39.4489 212.213 41.9432 212.213 44.9432C212.213 47.8636 211.741 50.3295 210.798 52.3409C209.866 54.3409 208.594 55.858 206.98 56.892C205.378 57.9148 203.582 58.4261 201.594 58.4261C200.185 58.4261 198.986 58.1932 197.997 57.7273C197.02 57.2614 196.219 56.6761 195.594 55.9716C194.969 55.2557 194.491 54.5341 194.162 53.8068H193.94V67.8182H186.679ZM193.787 44.9091C193.787 46.4659 194.003 47.8239 194.435 48.983C194.866 50.142 195.491 51.0455 196.31 51.6932C197.128 52.3295 198.122 52.6477 199.293 52.6477C200.474 52.6477 201.474 52.3239 202.293 51.6761C203.111 51.017 203.73 50.108 204.151 48.9489C204.582 47.7784 204.798 46.4318 204.798 44.9091C204.798 43.3977 204.588 42.0682 204.168 40.9205C203.747 39.7727 203.128 38.875 202.31 38.2273C201.491 37.5795 200.486 37.2557 199.293 37.2557C198.111 37.2557 197.111 37.5682 196.293 38.1932C195.486 38.8182 194.866 39.7045 194.435 40.8523C194.003 42 193.787 43.3523 193.787 44.9091ZM230.98 31.8182V37.2727H215.213V31.8182H230.98ZM218.793 25.5455H226.054V49.9545C226.054 50.625 226.156 51.1477 226.361 51.5227C226.565 51.8864 226.849 52.142 227.213 52.2898C227.588 52.4375 228.02 52.5114 228.509 52.5114C228.849 52.5114 229.19 52.483 229.531 52.4261C229.872 52.358 230.134 52.3068 230.315 52.2727L231.457 57.6761C231.094 57.7898 230.582 57.9205 229.923 58.0682C229.264 58.2273 228.463 58.3239 227.52 58.358C225.77 58.4261 224.236 58.1932 222.918 57.6591C221.611 57.125 220.594 56.2955 219.866 55.1705C219.139 54.0455 218.781 52.625 218.793 50.9091V25.5455ZM240.193 67.8182C239.273 67.8182 238.409 67.7443 237.602 67.5966C236.807 67.4602 236.148 67.2841 235.625 67.0682L237.261 61.6477C238.114 61.9091 238.881 62.0511 239.562 62.0739C240.256 62.0966 240.852 61.9375 241.352 61.5966C241.864 61.2557 242.278 60.6761 242.597 59.858L243.023 58.75L233.631 31.8182H241.267L246.688 51.0455H246.96L252.432 31.8182H260.119L249.943 60.8295C249.455 62.2386 248.79 63.4659 247.949 64.5114C247.119 65.5682 246.068 66.3807 244.795 66.9489C243.523 67.5284 241.989 67.8182 240.193 67.8182Z" fill="white"/>
<path d="M0 10C0 4.47715 4.47715 0 10 0H82.1206C87.6434 0 92.1206 4.47715 92.1206 10V12.2284H0V10Z" fill="#FF7700"/>
<path d="M0 67.6638H92.1206V79.8922H10C4.47715 79.8922 0 75.415 0 69.8922V67.6638Z" fill="#FF7700"/>
<path d="M12.2284 0V75.8161H10C4.47715 75.8161 -2.86102e-06 71.3389 -2.86102e-06 65.8161V9.99999C-2.86102e-06 4.47714 4.47715 0 10 0H12.2284Z" fill="#FF7700"/>
<path d="M82.1206 0C87.6435 0 92.1206 4.47715 92.1206 10V75.8161H79.8922V0H82.1206Z" fill="#FF7700"/>
<path d="M65.7761 51.3252C65.5844 49.7807 67.1526 48.6188 68.5744 49.2518L104.93 65.4395C106.329 66.0623 106.538 67.9619 105.308 68.8735L73.8523 92.18C72.622 93.0916 70.8655 92.3389 70.6769 90.8193L65.7761 51.3252Z" fill="white"/>
<rect x="73.1323" y="72.6086" width="6.65861" height="31.9613" rx="3.32931" transform="rotate(-36.5362 73.1323 72.6086)" fill="white"/>
<rect x="80.6224" y="67.0589" width="6.65861" height="31.9613" rx="3.32931" transform="rotate(-36.5362 80.6224 67.0589)" fill="white"/>
</svg>
