<svg xmlns="http://www.w3.org/2000/svg" version="1.1" viewBox="-5.0 -10.0 110.0 135.0">
 <path d="m78.125 29.168v-12.5c-0.023438-4.0195-3.2734-7.2695-7.293-7.293h-41.664c-4.0195 0.023438-7.2695 3.2734-7.293 7.293v12.5c-0.003906 2.8047 1.625 5.3555 4.168 6.5391v11.918c-2.543 1.1836-4.1719 3.7344-4.168 6.543v8.332c0.023438 1.7148 1.4102 3.1016 3.125 3.125h0.45703l-3.543 21.375h0.003907c-0.27734 1.7031 0.87891 3.3047 2.582 3.582h0.5c1.5312 0 2.8398-1.1094 3.082-2.625l1.0859-5.707h41.664l0.95703 5.75h0.003907c0.24219 1.5117 1.5508 2.625 3.082 2.625h0.5c1.7031-0.27734 2.8594-1.8789 2.582-3.582l-3.543-21.375h0.58594c1.7148-0.023438 3.1016-1.4102 3.125-3.125v-8.375c0.003906-2.8086-1.625-5.3594-4.168-6.543v-11.918c2.543-1.1836 4.1719-3.7344 4.168-6.5391zm-45.832 7.293h35.418v10.418l-35.418-0.003906zm-2.207 39.582 1.75-10.418h36.332l1.75 10.418z"/>
</svg>